<?xml version="1.0" ?><svg viewBox="0 0 64 64" xmlns="http://www.w3.org/2000/svg"><title/><g id="Award"><path d="M57,27a6.3073,6.3073,0,0,0-1.6133-4.2344A4.3665,4.3665,0,0,1,54.28,19.86a4.7381,4.7381,0,0,1,.0908-.898A6.653,6.653,0,0,0,54.51,17.68a6.3636,6.3636,0,0,0-4.3789-6.041,4.29,4.29,0,0,1-2.77-2.77,6.2858,6.2858,0,0,0-1.044-1.9473A6.4106,6.4106,0,0,0,41.32,4.49a6.73,6.73,0,0,0-1.291.14A4.3965,4.3965,0,0,1,36.24,3.6172a6.3677,6.3677,0,0,0-8.4248-.0493,1.11,1.11,0,0,0-.1093.084,4.249,4.249,0,0,1-3.7461.9765A6.6837,6.6837,0,0,0,22.68,4.49a6.4082,6.4082,0,0,0-4.9942,2.4292,6.281,6.281,0,0,0-1.0459,1.95,4.2925,4.2925,0,0,1-2.7753,2.7715A6.3624,6.3624,0,0,0,9.49,17.68a6.6737,6.6737,0,0,0,.1377,1.2788A4.7136,4.7136,0,0,1,9.72,19.86a4.3628,4.3628,0,0,1-1.1015,2.9,6.3634,6.3634,0,0,0-.0049,8.4741A4.3665,4.3665,0,0,1,9.72,34.14a4.7381,4.7381,0,0,1-.0908.898A6.653,6.653,0,0,0,9.49,36.32a6.3639,6.3639,0,0,0,4.3809,6.0415,4.1319,4.1319,0,0,1,1.07.5514L9.1328,54.0786a.9992.9992,0,0,0,.8115,1.4585l7.1739.5381,4.5586,5.5591A1.0007,1.0007,0,0,0,22.45,62c.0342,0,.0684-.002.1035-.0054a.9973.9973,0,0,0,.7832-.5332l5.3914-10.365a6.3724,6.3724,0,0,0,6.5431-.0006l5.3917,10.3656a.9973.9973,0,0,0,.7832.5332c.0351.0034.0693.0054.1035.0054a1.0007,1.0007,0,0,0,.7734-.3657l4.5586-5.5591,7.1729-.5381a.9989.9989,0,0,0,.8115-1.4585L49.0546,42.9051a4.3582,4.3582,0,0,1,1.0811-.5457A6.3624,6.3624,0,0,0,54.51,36.32a6.6737,6.6737,0,0,0-.1377-1.2788A4.7136,4.7136,0,0,1,54.28,34.14a4.3678,4.3678,0,0,1,1.1054-2.9047A6.3137,6.3137,0,0,0,57,27ZM17.0367,54.0634l-5.43-.4071,4.7621-9.1547c.0088.0173.0192.0334.0279.0508a4.4023,4.4023,0,0,1,.2442.5819,6.36,6.36,0,0,0,3.1388,3.6521Zm5.226,5.13-3.4508-4.2081L21.7,49.43a6.0662,6.0662,0,0,0,2.2614-.0583,4.7239,4.7239,0,0,1,.8828-.09c.0961-.0009.186.0169.28.0221a4.3393,4.3393,0,0,1,1.76.4931c.0689.0366.1419.0617.2094.102l.0031.0022Zm19.4746,0L36.9033,49.9a4.5226,4.5226,0,0,1,.6883-.3356,4.3518,4.3518,0,0,1,1.3111-.2628c.0853-.0043.1665-.0208.2535-.02a4.727,4.727,0,0,1,.779.0794c.0354.0062.0682.0042.1039.0112.0154.003.028.0031.0433.006.2662.0507.5117.083.7455.1039.09.0082.1767.0106.2637.0149.0752.0032.1562.0129.2287.0129.0356,0,.0694-.0078.1049-.0084a5.4567,5.4567,0,0,0,.859-.0685l.0172-.0014,2.8867,5.5542Zm10.6553-5.5375-5.4293.4071-2.7345-5.2613c.0695-.0359.1314-.0839.1994-.1222.1008-.0565.1972-.1188.2944-.1806.1409-.09.2826-.1769.416-.2777a6.3617,6.3617,0,0,0,.5856-.4975c.0859-.0829.1626-.1744.2439-.2622.1289-.1385.2543-.2795.3706-.4293.07-.0908.1355-.1848.201-.28.1163-.1678.2236-.3414.3238-.5207.0467-.0838.0953-.1653.1384-.2516a6.3755,6.3755,0,0,0,.3585-.8477l.0089-.0214a4.3534,4.3534,0,0,1,.2724-.59ZM53.8975,29.9l-.0049.0054A6.3621,6.3621,0,0,0,52.28,34.14a6.804,6.804,0,0,0,.1279,1.2818,4.73,4.73,0,0,1,.1016.8979,4.3631,4.3631,0,0,1-3,4.14,6.3391,6.3391,0,0,0-2.8333,1.9084c-.0387.0446-.08.086-.1175.1317-.1084.1338-.206.2757-.3033.4181-.0473.069-.0993.1339-.1438.2048-.1035.1649-.194.338-.2821.5126-.0261.0516-.0576.1-.0822.1523a6.2512,6.2512,0,0,0-.2867.7175,4.4313,4.4313,0,0,1-.244.5785c-.0317.0634-.0674.1241-.102.1856q-.0973.1737-.209.3361c-.05.0727-.1.1454-.1546.2148-.0646.0832-.1353.16-.2053.2381a4.3648,4.3648,0,0,1-.9906.8176c-.0214.0129-.0422.0267-.0638.0392a4.3963,4.3963,0,0,1-.44.2216l-.0344.0144a4.4337,4.4337,0,0,1-.4857.1749c-.052.0163-.1025.0257-.1538.04-.1194.03-.2365.0675-.3592.0874l-.0166.0021a4.37,4.37,0,0,1-.619.05c-.0667,0-.1337,0-.2041-.0036-.0631-.0027-.1264-.0054-.1945-.0118-.1743-.0169-.3568-.0407-.5622-.0807a6.96,6.96,0,0,0-.7724-.1065c-.1056-.0086-.2083-.0044-.3128-.008-.1457-.0049-.2924-.015-.436-.01-.2032.0065-.4023.0285-.6005.0539-.0409.0053-.0832.0054-.1239.0115a6.1608,6.1608,0,0,0-2.0156.6693l-.0117.0056a6.3631,6.3631,0,0,0-.5585.3425c-.019.0128-.0392.0234-.058.0364-.1657.1151-.3246.2425-.4811.3741-.0285.0239-.0594.0436-.0875.068l-.004.0048c-.0193.0168-.04.03-.0595.0475a4.3664,4.3664,0,0,1-5.8008,0c-.0176-.0157-.0351-.03-.0527-.0445l-.0293-.0234c-.0981-.0845-.2031-.1574-.305-.2354-.0872-.067-.1713-.1395-.2612-.2017-.0718-.05-.1484-.09-.2217-.1362-.13-.082-.258-.1671-.3927-.2393-.0326-.0174-.0673-.03-.1-.0468a6.3229,6.3229,0,0,0-4.1578-.5615,3.8575,3.8575,0,0,1-2.1279-.0889,4.3578,4.3578,0,0,1-2.9112-2.813,6.195,6.195,0,0,0-1.63-2.58l-.0086-.0075-.009-.01-.0056-.0033a6.118,6.118,0,0,0-2.3919-1.4455A4.3643,4.3643,0,0,1,11.49,36.32a4.7128,4.7128,0,0,1,.1026-.9009A6.8286,6.8286,0,0,0,11.72,34.14a6.3664,6.3664,0,0,0-1.6172-4.24,4.3649,4.3649,0,0,1,.0049-5.8052A6.3621,6.3621,0,0,0,11.72,19.86a6.804,6.804,0,0,0-.1279-1.2818A4.73,4.73,0,0,1,11.49,17.68a4.3631,4.3631,0,0,1,3-4.14,6.3551,6.3551,0,0,0,4.05-4.0488,4.277,4.277,0,0,1,.7159-1.333A4.393,4.393,0,0,1,22.68,6.49a4.7749,4.7749,0,0,1,.8984.1011,6.2587,6.2587,0,0,0,5.4033-1.3975A1.0465,1.0465,0,0,0,29.1,5.1025a4.3663,4.3663,0,0,1,5.8057.0044,6.4011,6.4011,0,0,0,5.5156,1.4844A4.7931,4.7931,0,0,1,41.32,6.49a4.3959,4.3959,0,0,1,3.4258,1.67A4.2857,4.2857,0,0,1,45.46,9.4912a6.3531,6.3531,0,0,0,4.0449,4.0479A4.3643,4.3643,0,0,1,52.51,17.68a4.7128,4.7128,0,0,1-.1026.9009A6.8286,6.8286,0,0,0,52.28,19.86a6.3664,6.3664,0,0,0,1.6172,4.24,4.365,4.365,0,0,1,0,5.8Z"/><path d="M42.208,22.3667l-5.7344-1.1216-2.8388-5.1069a1.87,1.87,0,0,0-3.27,0l-2.8388,5.1069L21.792,22.3667a1.8711,1.8711,0,0,0-1.0107,3.11l3.9794,4.2773-.705,5.8013a1.8713,1.8713,0,0,0,2.6464,1.9214L32,35.0142l5.2988,2.4629a1.871,1.871,0,0,0,2.6455-1.9219l-.705-5.8008,3.98-4.2778a1.8709,1.8709,0,0,0-1.0108-3.11Zm-4.4746,6.07a1.8676,1.8676,0,0,0-.4873,1.5l.6846,5.6289-5.1426-2.3906a1.8687,1.8687,0,0,0-1.5772.0005l-5.1416,2.39.6836-5.6279a1.8645,1.8645,0,0,0-.4863-1.501l-3.8623-4.1513L27.97,23.1963a1.8657,1.8657,0,0,0,1.2754-.9273L32,17.3135l2.7549,4.956a1.8665,1.8665,0,0,0,1.2754.9268l5.5654,1.0889Z"/><path d="M32,8.5884A17.9412,17.9412,0,1,0,49.9414,26.5293,17.9617,17.9617,0,0,0,32,8.5884Zm0,33.8823A15.9412,15.9412,0,1,1,47.9414,26.5293,15.96,15.96,0,0,1,32,42.4707Z"/></g></svg>